<svg width="150" height="110" viewBox="0 0 15 11" fill="none" xmlns="http://www.w3.org/2000/svg">
<path fill-rule="evenodd" clip-rule="evenodd" d="M14.7072 2.84598C15.0977 2.45546 15.0977 1.82234 14.7072 1.43182L14.5445 1.26909C14.1539 0.878525 13.5207 0.878526 13.1302 1.26909L8.23657 6.1631C7.84604 6.55366 7.21283 6.55367 6.8223 6.1631L1.9287 1.2691C1.53816 0.878539 0.904956 0.878539 0.514425 1.2691L0.351703 1.43184C-0.0387836 1.82235 -0.0387837 2.45548 0.351702 2.84599L7.52889 10.0238C7.52899 10.0239 7.52916 10.0239 7.52926 10.0238L7.52927 10.0238C7.52937 10.0237 7.52953 10.0237 7.52963 10.0238C7.52973 10.0239 7.52989 10.0239 7.52999 10.0238L14.7072 2.84598Z" fill="#AEABBC"/>
</svg>
