<svg viewBox="0 0 80 81" fill="none" xmlns="http://www.w3.org/2000/svg">
<path fill-rule="evenodd" clip-rule="evenodd" d="M7.25854 26.1189C5.79247 20.5764 9.03948 14.8793 14.5109 13.3942C19.9824 11.9091 25.6064 15.1983 27.0724 20.7408C27.8054 23.5121 26.1819 26.3606 23.4463 27.1031C20.7105 27.8457 17.8985 26.2011 17.1654 23.4299C16.839 22.1955 16.98 20.9458 17.4786 19.8737C17.8147 19.1509 17.5213 18.1846 16.7354 18.2524C16.4373 18.2782 16.1373 18.3309 15.8382 18.412C13.1025 19.1546 11.479 22.0031 12.212 24.7744L20.1757 54.8811C21.6417 60.4236 18.3948 66.1207 12.9233 67.6058C7.45185 69.0909 1.82788 65.8017 0.361807 60.2592C-0.371228 57.4879 1.25227 54.6394 3.98799 53.8969C6.72371 53.1543 9.5357 54.7989 10.2687 57.5701C10.5953 58.8045 10.4543 60.0542 9.95565 61.1263C9.6195 61.8491 9.91291 62.8155 10.6989 62.7476C10.9969 62.7218 11.2969 62.6691 11.596 62.588C14.3317 61.8455 15.9553 58.9969 15.2222 56.2256L7.25854 26.1189Z" fill="#F9F9FA"/>
<path fill-rule="evenodd" clip-rule="evenodd" d="M72.2252 26.1189C73.6913 20.5764 70.4443 14.8793 64.9729 13.3942C59.5014 11.9091 53.8774 15.1983 52.4114 20.7408C51.6784 23.5121 53.3019 26.3606 56.0375 27.1031C58.7733 27.8457 61.5853 26.2011 62.3184 23.4299C62.6448 22.1955 62.5038 20.9458 62.0052 19.8737C61.6691 19.1509 61.9625 18.1846 62.7484 18.2524C63.0466 18.2782 63.3466 18.3309 63.6456 18.412C66.3813 19.1546 68.0048 22.0031 67.2718 24.7744L59.3081 54.8811C57.8421 60.4236 61.089 66.1207 66.5605 67.6058C72.032 69.0909 77.6559 65.8017 79.122 60.2592C79.8551 57.4879 78.2315 54.6394 75.4958 53.8969C72.7601 53.1543 69.9481 54.7989 69.2151 57.5701C68.8885 58.8045 69.0295 60.0542 69.5281 61.1263C69.8643 61.8491 69.5709 62.8155 68.7849 62.7476C68.4869 62.7218 68.1869 62.6691 67.8878 62.588C65.1521 61.8455 63.5285 58.9969 64.2616 56.2256L72.2252 26.1189Z" fill="#F9F9FA"/>
<path d="M32.8205 22.3182C32.8205 21.1706 33.7389 20.2403 34.8718 20.2403C36.0047 20.2403 36.9231 21.1706 36.9231 22.3182V59.7208C36.9231 60.8684 36.0047 61.7987 34.8718 61.7987C33.7389 61.7987 32.8205 60.8684 32.8205 59.7208V22.3182Z" fill="#F9F9FA"/>
<path d="M32.8205 22.3182C32.8205 21.1706 33.7389 20.2403 34.8718 20.2403C36.0047 20.2403 36.9231 21.1706 36.9231 22.3182V59.7208C36.9231 60.8684 36.0047 61.7987 34.8718 61.7987C33.7389 61.7987 32.8205 60.8684 32.8205 59.7208V22.3182Z" fill="#F9F9FA"/>
<path d="M43.0769 22.3182C43.0769 21.1706 43.9953 20.2403 45.1282 20.2403C46.2611 20.2403 47.1795 21.1706 47.1795 22.3182V59.7208C47.1795 60.8684 46.2611 61.7987 45.1282 61.7987C43.9953 61.7987 43.0769 60.8684 43.0769 59.7208V22.3182Z" fill="#F9F9FA"/>
<path d="M43.0769 22.3182C43.0769 21.1706 43.9953 20.2403 45.1282 20.2403C46.2611 20.2403 47.1795 21.1706 47.1795 22.3182V59.7208C47.1795 60.8684 46.2611 61.7987 45.1282 61.7987C43.9953 61.7987 43.0769 60.8684 43.0769 59.7208V22.3182Z" fill="#F9F9FA"/>
</svg>
