<svg width="78" height="78" viewBox="0 0 78 78" fill="none" xmlns="http://www.w3.org/2000/svg">
<path fill-rule="evenodd" clip-rule="evenodd" d="M7.07708 24.8356C5.64766 19.501 8.81348 14.0176 14.1481 12.5882C19.4828 11.1588 24.9662 14.3246 26.3956 19.6593C27.1103 22.3266 25.5274 25.0683 22.8601 25.783C20.1927 26.4977 17.451 24.9148 16.7363 22.2474C16.418 21.0594 16.5555 19.8566 17.0416 18.8247C17.3693 18.129 17.0833 17.1988 16.317 17.2642C16.0264 17.289 15.7339 17.3397 15.4422 17.4178C12.7749 18.1325 11.192 20.8742 11.9067 23.5415L19.6713 52.5193C21.1007 57.854 17.9349 63.3373 12.6002 64.7668C7.26555 66.1962 1.78218 63.0304 0.352762 57.6957C-0.361947 55.0284 1.22096 52.2867 3.88829 51.572C6.55562 50.8573 9.29731 52.4402 10.012 55.1075C10.3304 56.2956 10.1929 57.4984 9.70676 58.5303C9.37901 59.226 9.66509 60.1561 10.4314 60.0907C10.722 60.0659 11.0145 60.0153 11.3061 59.9371C13.9734 59.2224 15.5564 56.4807 14.8416 53.8134L7.07708 24.8356Z" fill="black"/>
<path fill-rule="evenodd" clip-rule="evenodd" d="M70.4196 24.8356C71.849 19.501 68.6832 14.0176 63.3486 12.5882C58.0139 11.1588 52.5305 14.3246 51.1011 19.6593C50.3864 22.3266 51.9693 25.0683 54.6366 25.783C57.304 26.4977 60.0457 24.9148 60.7604 22.2474C61.0787 21.0594 60.9412 19.8566 60.4551 18.8247C60.1274 18.129 60.4134 17.1988 61.1797 17.2642C61.4704 17.289 61.7629 17.3397 62.0545 17.4178C64.7218 18.1325 66.3047 20.8742 65.59 23.5415L57.8254 52.5193C56.396 57.854 59.5618 63.3373 64.8965 64.7668C70.2312 66.1962 75.7145 63.0304 77.1439 57.6957C77.8587 55.0284 76.2757 52.2867 73.6084 51.572C70.9411 50.8573 68.1994 52.4402 67.4847 55.1075C67.1663 56.2956 67.3038 57.4984 67.7899 58.5303C68.1177 59.226 67.8316 60.1561 67.0653 60.0907C66.7747 60.0659 66.4822 60.0153 66.1906 59.9371C63.5233 59.2224 61.9403 56.4807 62.6551 53.8134L70.4196 24.8356Z" fill="black"/>
<path d="M41 20C41 19.4477 41.4477 19 42 19C42.5523 19 43 19.4477 43 20V58C43 58.5523 42.5523 59 42 59C41.4477 59 41 58.5523 41 58V20Z" fill="black"/>
<path d="M41 20C41 19.4477 41.4477 19 42 19C42.5523 19 43 19.4477 43 20V58C43 58.5523 42.5523 59 42 59C41.4477 59 41 58.5523 41 58V20Z" fill="black"/>
<path d="M35 20C35 19.4477 35.4477 19 36 19C36.5523 19 37 19.4477 37 20V58C37 58.5523 36.5523 59 36 59C35.4477 59 35 58.5523 35 58V20Z" fill="black"/>
<path d="M35 20C35 19.4477 35.4477 19 36 19C36.5523 19 37 19.4477 37 20V58C37 58.5523 36.5523 59 36 59C35.4477 59 35 58.5523 35 58V20Z" fill="black"/>
<path d="M29 20C29 19.4477 29.4477 19 30 19C30.5523 19 31 19.4477 31 20V58C31 58.5523 30.5523 59 30 59C29.4477 59 29 58.5523 29 58V20Z" fill="black"/>
<path d="M29 20C29 19.4477 29.4477 19 30 19C30.5523 19 31 19.4477 31 20V58C31 58.5523 30.5523 59 30 59C29.4477 59 29 58.5523 29 58V20Z" fill="black"/>
<path d="M47 20C47 19.4477 47.4477 19 48 19C48.5523 19 49 19.4477 49 20V58C49 58.5523 48.5523 59 48 59C47.4477 59 47 58.5523 47 58V20Z" fill="black"/>
<path d="M47 20C47 19.4477 47.4477 19 48 19C48.5523 19 49 19.4477 49 20V58C49 58.5523 48.5523 59 48 59C47.4477 59 47 58.5523 47 58V20Z" fill="black"/>
</svg>
